<?xml version="1.0" encoding="utf-8"?>
<!-- Generator: Adobe Illustrator 14.0.0, SVG Export Plug-In . SVG Version: 6.00 Build 43363)  -->
<!DOCTYPE svg PUBLIC "-//W3C//DTD SVG 1.1//EN" "http://www.w3.org/Graphics/SVG/1.1/DTD/svg11.dtd">
<svg version="1.1"
	 id="svg1939" xmlns:dc="http://purl.org/dc/elements/1.1/" xmlns:cc="http://web.resource.org/cc/" xmlns:rdf="http://www.w3.org/1999/02/22-rdf-syntax-ns#" xmlns:svg="http://www.w3.org/2000/svg" xmlns:sodipodi="http://sodipodi.sourceforge.net/DTD/sodipodi-0.dtd" xmlns:inkscape="http://www.inkscape.org/namespaces/inkscape" inkscape:output_extension="org.inkscape.output.svg.inkscape" sodipodi:version="0.32" inkscape:version="0.45.1" sodipodi:docbase="/home/azatoth/img" sodipodi:docname="Wikinews-breaking-news.svg"
	 xmlns="http://www.w3.org/2000/svg" xmlns:xlink="http://www.w3.org/1999/xlink" x="0px" y="0px" width="3100px"
	 height="345.379px" viewBox="0 0 3100 345.379" enable-background="new 0 0 3100 345.379" xml:space="preserve">
<sodipodi:namedview  width="3100px" height="345.38px" id="base" bordercolor="#666666" borderopacity="1.0" objecttolerance="10.0" inkscape:cy="170.81525" gridtolerance="10.0" guidetolerance="10.0" inkscape:cx="1197.0296" inkscape:zoom="0.2644733" pagecolor="#ffffff" inkscape:current-layer="layer5" inkscape:window-y="138" inkscape:window-x="59" inkscape:window-width="1539" inkscape:pageopacity="0.0" inkscape:pageshadow="2" inkscape:window-height="977">
	</sodipodi:namedview>
<g id="layer4" inkscape:label="logo" inkscape:groupmode="layer">
	<g id="layer1" transform="translate(0,2.5040527e-4)">
		
			<linearGradient id="path6685_1_" gradientUnits="userSpaceOnUse" x1="1374.8691" y1="1177.3616" x2="1491.1216" y2="1177.3616" gradientTransform="matrix(0 -1 -1 0 1479.8499 1604.0618)">
			<stop  offset="0" style="stop-color:#B0DDFF"/>
			<stop  offset="0.5" style="stop-color:#CAE8FF"/>
			<stop  offset="1" style="stop-color:#B0DDFF"/>
		</linearGradient>
		<path id="path6685" fill="url(#path6685_1_)" d="M13.928,225.272c-3.686-5.02-7.774-13.932-9.905-21.586
			c-6.8-24.437-4.765-60.038,4.476-78.303c2.616-5.171,5.796-10.139,7.283-11.38c1.174-0.979,18.396-1.513,18.396-0.57
			c0,0.233-0.94,2.28-2.089,4.548c-8.678,17.125-13.072,40.568-11.503,61.375c1.288,17.088,5.28,32.584,11.614,45.083
			c1.088,2.147,1.979,4.097,1.979,4.329c0,0.234-3.908,0.425-8.686,0.425h-8.686L13.928,225.272z M571.332,228.594
			c0-0.329,1.755-4.74,3.9-9.803c7.31-17.248,10.16-33.158,9.294-51.88c-1.031-22.299-4.23-34.643-13.816-53.307
			c-0.169-0.328,3.768-0.597,8.747-0.597h9.055l2.856,3.78c5.759,7.624,9.747,18.215,12.211,32.428
			c1.65,9.523,1.887,30.322,0.451,39.79c-2.37,15.637-8.196,31.305-13.883,37.334l-2.69,2.853h-8.063
			C574.96,229.193,571.332,228.923,571.332,228.594z"/>
		
			<linearGradient id="path6683_1_" gradientUnits="userSpaceOnUse" x1="1355.7476" y1="1176.6624" x2="1510.04" y2="1176.6624" gradientTransform="matrix(0 -1 -1 0 1479.0481 1604.6594)">
			<stop  offset="0" style="stop-color:#7DC1F3"/>
			<stop  offset="0.5" style="stop-color:#AADDFF"/>
			<stop  offset="1" style="stop-color:#7DC1F3"/>
		</linearGradient>
		<path id="path6683" fill="url(#path6683_1_)" d="M63.893,248.543c-3.133-0.318-3.523-0.662-7.325-6.461
			c-4.985-7.604-7.983-14.17-11.155-24.429c-8.74-28.267-8.412-67.104,0.8-94.696c2.813-8.428,9.241-21.048,12.862-25.256
			l2.557-2.972l10.591-0.099c5.825-0.054,10.772,0.083,10.995,0.306c0.223,0.223-0.465,2.142-1.529,4.265
			c-5.123,10.222-9.661,27.426-12.137,46.012c-1.419,10.658-1.657,40.741-0.405,51.351c1.509,12.795,4.695,26.912,8.864,39.289
			c2.193,6.509,3.762,12.06,3.487,12.335C80.908,248.78,68.644,249.028,63.893,248.543z M524.182,248.538
			c-1.832-0.479-1.799-0.718,1.022-7.347c3.546-8.334,7.698-24.266,9.649-37.018c2.367-15.481,2.589-48.981,0.41-62.12
			c-2.587-15.601-7.518-33.414-11.392-41.155c-3.167-6.328-3.365-6.194,9.146-6.194h11.026l3.197,4.576
			c7.283,10.419,13.154,25.503,16.187,41.58c2.434,12.903,3.039,40.269,1.186,53.569c-2.725,19.555-8.152,35.734-15.859,47.278
			c-4.052,6.068-4.204,6.195-8.085,6.712C536.195,249.017,526.283,249.088,524.182,248.538z"/>
		
			<linearGradient id="path6681_1_" gradientUnits="userSpaceOnUse" x1="1339.752" y1="1178.5198" x2="1526.7612" y2="1178.5198" gradientTransform="matrix(0 -1 -1 0 1481.2698 1603.1633)">
			<stop  offset="0" style="stop-color:#4B9FDB"/>
			<stop  offset="0.5" style="stop-color:#7EC9FD"/>
			<stop  offset="1" style="stop-color:#4B9FDB"/>
		</linearGradient>
		<path id="path6681" fill="url(#path6681_1_)" d="M493.164,79.114c11.403,12.988,19.487,34.181,23.4,61.349
			c1.38,9.583,1.367,43.602-0.021,54.511c-1.513,11.888-4.519,24.962-8.18,35.581c-3.72,10.786-6.438,16.424-12.487,25.893
			l-4.447,6.964h-15.825c-8.703,0-15.703-0.269-15.555-0.597s1.214-2.388,2.366-4.576c9.708-18.428,18.107-46.113,20.614-67.949
			c1.372-11.943,0.569-38.575-1.508-50.02c-3.361-18.526-8.221-34.246-15.966-51.65l-5.438-12.217h15.332h15.333L493.164,79.114z
			 M145.577,77.218c0,0.449-1.303,3.403-2.896,6.565c-8.807,17.485-16.258,41.344-18.991,60.812
			c-1.718,12.242-1.763,42.259-0.077,52.368c3.28,19.675,8.704,37.158,17.089,55.092c2.682,5.734,4.875,10.636,4.875,10.892
			c0,0.255-6.78,0.465-15.066,0.465h-15.066l-2.874-3.507c-22.244-27.146-31.294-92.116-19.411-139.336
			c4.399-17.481,11.719-32.809,19.668-41.182l2.833-2.984h14.958C140.304,76.402,145.577,76.69,145.577,77.218z"/>
		
			<radialGradient id="path12347_1_" cx="414.6035" cy="-108.8738" r="164.7341" gradientTransform="matrix(1 0 0 -1.0145 -109.8184 61.4443)" gradientUnits="userSpaceOnUse">
			<stop  offset="0" style="stop-color:#EEEEEE"/>
			<stop  offset="1" style="stop-color:#D5E1FD"/>
		</radialGradient>
		<path id="path12347" fill="url(#path12347_1_)" d="M203.157,40.377C274.684-16.508,378.11-3.874,434.282,68.609
			c56.173,72.483,43.866,177.426-27.503,234.515c-71.368,57.089-174.829,44.751-231.203-27.57
			c-56.375-72.322-44.359-177.3,26.85-234.593"/>
		<path id="path8589" fill="none" stroke="#BBD2E6" stroke-width="9.5494" stroke-linecap="round" stroke-linejoin="round" d="
			M203.157,40.377C274.684-16.508,378.11-3.874,434.282,68.609c56.173,72.483,43.866,177.426-27.503,234.515
			c-71.368,57.089-174.829,44.751-231.203-27.57c-56.375-72.322-44.359-177.3,26.85-234.593"/>
		<path id="path8771" fill="none" stroke="#BBD2E6" stroke-width="9.5494" stroke-linecap="round" stroke-linejoin="round" d="
			M241.262,93.78c42.916-34.13,104.972-26.55,138.675,16.94c33.704,43.49,26.319,106.455-16.502,140.708
			c-42.821,34.254-104.897,26.852-138.722-16.541c-33.825-43.395-26.616-106.38,16.11-140.756"/>
		<path id="path8781" fill="none" stroke="#BBD2E6" stroke-width="9.5494" d="M187.805,55.712l234.756,235.154"/>
		<path id="path9668" fill="none" stroke="#BBD2E6" stroke-width="9.5494" d="M424.153,54.518L187.805,289.672"/>
		<path id="path10559" fill="none" stroke="#BBD2E6" stroke-width="9.5494" d="M303.99,4.781l0.574,335.82"/>
		<path id="path10561" fill="none" stroke="#BBD2E6" stroke-width="9.5494" d="M144.037,171.1l327.067,2.387"/>
		<g id="layer3" transform="matrix(0.795784,0,0,0.795784,2.202877e-4,76.40201)">
			
				<radialGradient id="path14257_1_" cx="217.3193" cy="-246.4801" r="184.2705" gradientTransform="matrix(0.7958 0 0 -0.6869 200.1418 -45.9483)" gradientUnits="userSpaceOnUse">
				<stop  offset="0" style="stop-color:#35A5EC"/>
				<stop  offset="1" style="stop-color:#2681DA"/>
			</radialGradient>
			<path id="path14257" fill="url(#path14257_1_)" d="M358.702,282.104c-4.122-0.334-7.5-2.494-7.5-4.797
				c0-0.719-1.392-2.895-3.094-4.833c-2.017-2.298-3.289-5.006-3.657-7.785c-0.31-2.344-1.565-5.857-2.791-7.807
				c-2.017-3.213-2.094-3.802-0.818-6.239c0.776-1.479,2.489-2.96,3.809-3.291c2.075-0.522,2.353-1.097,2.056-4.263
				c-0.442-4.695-1.873-8.391-3.901-10.074c-2.156-1.79-2.02-3.724,0.45-6.375l2.054-2.205l-2.165-1.754
				c-1.191-0.965-2.76-1.752-3.487-1.752c-0.727,0-1.609-0.906-1.96-2.011c-0.351-1.106-1.844-2.635-3.317-3.396
				c-2.805-1.451-3.302-1.593-5.567-1.593c-0.763,0-3.594-1.463-6.29-3.251c-2.697-1.788-5.785-3.742-6.862-4.343
				c-2.465-1.374-6.362-9.093-6.262-12.407c0.041-1.374-0.418-3.718-1.021-5.209c-0.968-2.394-0.794-2.946,1.499-4.75
				c1.427-1.122,2.972-2.04,3.434-2.04c0.461,0,1.498-1.276,2.305-2.835c1.637-3.166,1.501-3.122,10.8-3.493
				c3.692-0.147,7.03-0.584,7.416-0.971c0.387-0.387,2.402-0.703,4.477-0.703c3.774,0,5.824-1.306,3.909-2.49
				c-1.63-1.008-1.187-3,1.314-5.91c2.105-2.451,2.588-2.594,5-1.496c1.469,0.67,2.67,1.649,2.67,2.179
				c0,0.529,0.704,0.378,1.564-0.336c0.947-0.785,1.349-2.157,1.019-3.474c-0.733-2.917,0.102-3.531,3.27-2.404
				c2.535,0.903,2.563,0.877,0.647-0.618c-1.1-0.859-1.88-2.157-1.734-2.885c0.147-0.728-0.667-1.567-1.808-1.867
				c-1.792-0.469-1.906-0.81-0.837-2.522c0.824-1.319,2.011-1.84,3.558-1.559c1.595,0.288,2.321-0.055,2.321-1.098
				c0-0.852,0.877-1.519,1.995-1.519c1.745,0,1.919,0.468,1.391,3.749c-1.067,6.638-1.127,8.25-0.307,8.25
				c0.442,0,1.065-0.422,1.384-0.939c0.319-0.517,1.471-0.767,2.559-0.557c1.202,0.232,1.979-0.162,1.979-1.003
				c0-2.042,2.088-2.972,3.096-1.379c0.704,1.112,0.876,1.062,0.888-0.255c0.009-0.898-0.943-1.885-2.114-2.19
				c-1.475-0.387-1.936-1.062-1.5-2.198c0.347-0.903,0.63-2.28,0.63-3.061c0-0.78,0.892-1.419,1.981-1.419
				c1.09,0,3.605-1.576,5.59-3.502c5.02-4.876,7.602-5.31,12.456-2.098c3.249,2.15,3.973,2.334,3.973,1.009
				c0-1.005,0.551-1.41,1.449-1.065c1.017,0.39,1.265,0.076,0.83-1.058c-0.394-1.027-0.219-1.366,0.482-0.933
				c0.605,0.376,2.289-0.421,3.742-1.767c2.218-2.056,2.464-2.778,1.534-4.516c-1.019-1.905-0.868-2.457,0.499-1.819
				c1.325,0.617,2.011-2.614,1.483-6.983c-0.423-3.497-0.969-4.679-2.048-4.434c-0.809,0.183-1.894,0.409-2.412,0.5
				c-0.517,0.092-1.128-0.733-1.358-1.833c-0.229-1.1-0.11-1.703,0.266-1.341c0.376,0.363,2.112,0.22,3.858-0.315
				c1.746-0.536,3.625-1.069,4.175-1.187c2.357-0.501,3.201-1.77,2.749-4.132c-0.352-1.84-0.053-2.524,1.103-2.524
				c0.998,0,1.372-0.556,1.009-1.5c-0.656-1.71-4.361-2.064-4.361-0.417c0,2.414-2.372,0.091-2.697-2.641
				c-0.25-2.108-0.082-2.537,0.594-1.512c0.519,0.787,1.585,1.524,2.368,1.639c1.136,0.167,1.274-0.617,0.681-3.861
				c-0.409-2.238-0.556-4.561-0.325-5.161c0.23-0.6-0.943-1.895-2.607-2.878c-3.704-2.187-7.664-9.636-5.766-10.842
				c1.838-1.167,2.467-1.01,3.156,0.787c0.522,1.359,0.871,1.404,2.219,0.285c1.728-1.434,8.278-1.311,9.827,0.185
				c1.25,1.209,4.55,1.182,4.55-0.036c0-1.152,5.806-2.351,9.119-1.882l2.381,0.337l-2.762,2.808
				c-2.145,2.179-3.43,2.703-5.746,2.338c-1.64-0.258-3.241-0.052-3.556,0.458c-0.315,0.511-1.105,0.609-1.755,0.22
				c-0.649-0.389-0.537,0.085,0.25,1.054c0.793,0.977,2.24,1.55,3.248,1.286c1.319-0.345,2.268,0.474,3.458,2.98
				c0.987,2.081,3.127,4.215,5.378,5.363c4.302,2.194,5.241,1.793,3.923-1.675c-1.22-3.209-1.34-2.935,1.814-4.144
				c6.527-2.502,7.497-2.543,6.781-0.287c-0.393,1.237-0.228,2.098,0.401,2.098c2.024,0,2.576,0.188,5.317,1.807
				c1.512,0.893,2.75,2.394,2.75,3.335c0,0.941,1.35,2.384,3,3.208c1.65,0.823,3,1.111,3,0.641c0-1.506,4.044-2.199,5.548-0.951
				c1.967,1.632,1.902,4.347-0.086,3.584c-0.875-0.336-1.783,0.049-2.106,0.893c-0.314,0.815-1.166,1.483-1.895,1.483
				c-0.845,0-1.293,1.164-1.235,3.205c0.09,3.143,0.119,3.162,1.541,1.022l1.449-2.183l1.762,2.176l1.762,2.176l0.663-2.088
				c0.996-3.137,4.975-3.416,9.065-0.637c4.183,2.842,6.346,6.689,7.18,12.767c0.337,2.462,1.047,4.381,1.576,4.268
				c1.277-0.275,3.399,3.004,2.516,3.888c-0.38,0.379-1.305,0.179-2.057-0.444c-2.323-1.928-3.602,0.847-1.743,3.785
				c0.753,1.19,1.178,1.212,2.484,0.128c0.867-0.719,1.576-1.028,1.576-0.685c0,0.341,0.865-0.243,1.923-1.301
				c3.601-3.602,6.726-1.325,8.474,6.173c0.483,2.074,0.268,2.75-0.878,2.75c-0.836,0-1.519,0.45-1.519,1
				c0,0.55-0.575,0.999-1.277,0.999c-0.703,0-2.065,0.92-3.028,2.044c-1.533,1.79-1.569,2.224-0.292,3.502
				c1.674,1.674,6.118,0.492,8.04-2.138c1.059-1.448,5.525-2.675,10.308-2.835c1.237-0.039,2.249-0.65,2.249-1.355
				s0.647-1.529,1.437-1.833c0.827-0.317,1.179-1.222,0.83-2.133c-0.407-1.063-0.214-1.338,0.59-0.842
				c0.658,0.407,1.071,1.447,0.92,2.311c-0.152,0.864,0.266,1.761,0.93,1.994c1.289,0.452,4.293-5.72,4.293-8.817
				c0-2.568,3.025-9.898,4.084-9.898c1.02,0,0.352,4.512-1.702,11.5c-2.276,7.746-3.535,10.524-4.498,9.928
				c-0.486-0.299-0.885,0.067-0.885,0.817c0,2.696-7.354,8.491-12.999,10.242c-2.094,0.65-6,2.972-6,3.566
				c0,0.403-0.675,0.992-1.5,1.308c-2.788,1.07-1.586-2.545,1.959-5.888c3.122-2.943,3.268-3.311,1.5-3.774
				c-1.077-0.282-1.959-0.029-1.959,0.561c0,0.589-0.296,0.777-0.658,0.415c-0.362-0.362-1.244-0.172-1.962,0.425
				c-0.941,0.78-2.357,0.724-5.092-0.204c-6.213-2.107-8.289-1.932-8.289,0.699c0,2.486-1.593,4.123-2.211,2.273
				c-0.282-0.846-1.303-0.812-3.901,0.128c-4.526,1.637-5.995,4.987-6.406,14.616c-0.372,8.701,0.965,11.011,6.464,11.167
				c3.877,0.11,4.51,0.591,3.668,2.783c-0.452,1.178-1.335,1.474-3.084,1.036c-1.838-0.461-2.724-0.104-3.547,1.433
				c-0.925,1.728-1.732,1.954-5.159,1.443c-2.235-0.334-4.797-0.972-5.694-1.419c-5.03-2.503-9.13-3.912-9.13-3.137
				c0,0.488-2.362,0.81-5.25,0.714c-4.304-0.142-6.043,0.352-9.646,2.744c-2.443,1.622-5.656,2.884-7.233,2.838
				c-1.56-0.045-3.096,0.339-3.413,0.852c-0.772,1.249-7.178,1.195-7.958-0.067c-0.796-1.287-2.5-1.296-2.5-0.014
				c0,0.544,1.65,1.676,3.666,2.519c3.412,1.425,3.81,1.4,5.75-0.355c1.546-1.399,3.075-1.76,5.923-1.398
				c3.812,0.484,3.834,0.512,3.165,4.116c-0.371,1.998-1.423,4.491-2.339,5.544c-4.566,5.247-8.86,9.032-13.449,11.857
				c-6.387,3.929-4.566,4.723,2.946,1.284c4.272-1.956,5.878-2.298,6.447-1.377c0.417,0.675,0.609,1.474,0.426,1.774
				c-0.183,0.302-0.837,2.429-1.454,4.727c-0.846,3.155-3.183,6.263-9.549,12.701l-8.428,8.524l1.521,3.048
				c0.836,1.676,1.916,3.048,2.4,3.048c0.951,0,3.145,6.914,2.516,7.93c-0.21,0.341-3.321,2.141-6.913,4.003
				c-5.552,2.875-6.388,3.65-5.58,5.159c0.523,0.977,0.95,2.243,0.95,2.815c0,1.303-5.522,4.236-6.373,3.386
				c-0.345-0.345-0.626,0.323-0.626,1.484c0,1.284-1.174,2.803-3,3.883c-1.65,0.974-3,2.199-3,2.722s-0.301,0.65-0.67,0.282
				c-0.369-0.369-1.831,0.118-3.25,1.082c-2.011,1.367-4.672,1.754-12.08,1.754C366.976,282.428,360.902,282.282,358.702,282.104z
				 M397.675,252.793c-0.56-2.91-1.474-3.652-1.474-1.198c0,1.747,0.766,3.333,1.609,3.333
				C397.962,254.928,397.902,253.966,397.675,252.793z M384.806,242.199c-0.333-0.333-0.569,0.259-0.525,1.312
				c0.048,1.166,0.285,1.403,0.604,0.605C385.173,243.393,385.138,242.531,384.806,242.199z M393.702,237.927
				c0.34-0.55-0.309-0.999-1.441-0.999c-1.132,0-2.059,0.449-2.059,0.999C390.202,239.225,392.899,239.225,393.702,237.927z
				 M401.231,205.776c-8.485-8.339-11.569-9.843-6.15-3c1.716,2.167,3.121,4.337,3.121,4.823c0,0.934,4.145,4.795,5,4.658
				c0.275-0.044,1.614,0.795,2.976,1.867c1.586,1.248,2.611,1.541,2.853,0.819C409.238,214.32,405.728,210.195,401.231,205.776z
				 M389.446,192.702c2.206,0.577,3.718-1.211,3.74-4.425c0.014-1.948-0.41-2.111-4.518-1.727c-4.189,0.39-4.664,0.194-6.251-2.593
				c-1.71-3.005-4.931-4.336-3.883-1.603c0.301,0.784-0.058,1.93-0.798,2.544c-1.054,0.874-1.692,0.422-2.941-2.081
				c-0.877-1.757-1.609-3.69-1.627-4.293c-0.033-1.144-4.488-6.597-5.389-6.597c-0.885,0,0.735,3.409,2.547,5.36
				c1.857,2,1.487,4.641-0.65,4.641c-0.72,0-1.499,0.562-1.73,1.249c-0.328,0.974-0.787,0.947-2.084-0.123
				c-2.295-1.895-2.098-3.431,0.277-2.16c2.841,1.52,3.75-0.677,1.246-3.01c-1.115-1.039-2.319-2.804-2.674-3.923
				c-0.966-3.043-9.398-3.35-12.592-0.46c-1.386,1.254-2.772,1.492-5.628,0.967c-2.837-0.522-3.51-0.409-2.674,0.448
				c0.614,0.628,2.639,1.389,4.5,1.69c1.861,0.301,3.834,0.632,4.383,0.738c0.55,0.107,2.575,1.026,4.5,2.043
				c1.925,1.017,3.725,1.894,4,1.945c0.276,0.053,0.434,1.333,0.353,2.846s0.257,2.75,0.75,2.75c0.494,0,1.763,0.866,2.822,1.924
				c3.421,3.421,5.713,4.218,7.151,2.485c1.324-1.595,1.666-1.557,8.425,0.934c2.2,0.81,4.626,1.124,5.392,0.696
				C386.859,192.539,388.368,192.42,389.446,192.702z M360.237,178.301c0.02-0.481,0.679-1.998,1.465-3.373
				c1.346-2.355,1.431-2.377,1.465-0.372c0.02,1.169-0.639,2.688-1.465,3.372C360.877,178.613,360.218,178.78,360.237,178.301z
				 M414.179,179.666c-0.031-1.746-2.988-5.179-6.228-7.228c-3.238-2.049-3.712-0.472-0.75,2.49c1.1,1.101,2,2.802,2,3.782
				c0,1.179,0.846,1.852,2.5,1.989C413.143,180.818,414.192,180.381,414.179,179.666z M388.792,178.937
				c0.587-0.587,2.198-0.663,3.95-0.189c3.108,0.839,6.464,0.506,6.453-0.643c-0.003-0.373-1.382-1.46-3.065-2.418
				c-1.855-1.057-2.775-2.199-2.339-2.905c0.452-0.73,0.283-0.895-0.452-0.441c-0.644,0.398-0.941,1.096-0.66,1.55
				c0.988,1.599-2.645,2.011-4.181,0.475c-1.406-1.406-1.719-1.286-3.274,1.254c-1.195,1.95-1.384,3.031-0.621,3.542
				C386.13,180.184,387.626,180.104,388.792,178.937z M378.201,158.453c0-0.747,0.492-1.522,1.093-1.723
				c1.15-0.383,1.908-7.802,0.797-7.802c-1.136,0-2.896,2.661-2.213,3.343c1.077,1.077-1.828,5.569-4.087,6.317
				c-1.998,0.663-1.979,0.722,0.41,1.36C377.131,160.727,378.201,160.327,378.201,158.453z M383.201,146.868
				c0-0.582-0.45-0.78-1-0.441c-1.282,0.792-1.282,1.501,0,1.501C382.752,147.929,383.201,147.451,383.201,146.868z
				 M392.201,146.438c0-0.152-0.866-0.503-1.925-0.779c-1.314-0.344-1.764-0.083-1.417,0.82
				C389.265,147.536,392.201,147.499,392.201,146.438z M438.389,93.245c-0.722-0.289-1.584-0.253-1.917,0.079
				c-0.332,0.332,0.258,0.568,1.312,0.525C438.95,93.801,439.187,93.564,438.389,93.245z M422.698,264.925
				c-1.48-1.637-1.61-2.452-0.706-4.435c0.789-1.733,0.796-2.533,0.026-2.791c-1.76-0.587,0.082-4.604,2.456-5.358
				c1.193-0.378,3.623-2.314,5.398-4.3c2.911-3.259,3.381-3.463,4.784-2.073c1.325,1.312,1.39,2.424,0.44,7.499
				c-1.948,10.399-2.267,11.046-6.123,12.39C424.923,267.27,424.805,267.251,422.698,264.925z M505.201,260.928c0-0.55,0.45-1,1-1
				s1,0.45,1,1s-0.45,1-1,1S505.201,261.478,505.201,260.928z M216.201,224.929c0-1.282,0.708-1.282,1.5,0
				c0.34,0.55,0.142,0.999-0.441,0.999C216.678,225.928,216.201,225.479,216.201,224.929z M204.868,193.26
				c-0.367-0.366-0.638-1.603-0.603-2.749c0.058-1.917,0.141-1.891,1.021,0.312C206.266,193.271,206.062,194.456,204.868,193.26z
				 M324.766,171.22c-0.543-1.425-0.428-1.539,0.56-0.56c0.684,0.679,0.991,1.485,0.683,1.794
				C325.701,172.762,325.142,172.207,324.766,171.22z M258.379,167.236c-3.423-2.613-4.71-3.094-6.184-2.303
				c-1.023,0.547-2.8,0.995-3.947,0.995c-3.002,0-10.038-4.714-10.092-6.763c-0.086-3.208-6.402-13.7-8.472-14.073
				c-4.58-0.827-12.879-11.634-13.992-18.22c-0.367-2.173-1.058-3.711-1.535-3.416c-1.596,0.987-4.078-4.313-4.66-9.95
				c-0.317-3.068-0.91-5.577-1.319-5.577c-1.284,0-1.808-3.812-1.011-7.347c0.663-2.942,0.531-3.334-0.987-2.937
				c-2.088,0.546-3.127-0.915-4.042-5.682l-0.677-3.534l-0.759,3.271c-1.002,4.32-2.5,5.127-2.5,1.347c0-1.65-0.45-3.278-1-3.618
				s-1-1.801-1-3.248c0-2.614-0.01-2.618-1.865-0.628c-1.025,1.101-2.391,2.986-3.035,4.188c-0.644,1.203-1.536,2.187-1.982,2.187
				c-0.885,0-0.537-8.506,0.45-10.973c0.336-0.84,0.814-2.594,1.063-3.899c0.698-3.658,3.971-9.471,6.229-11.061
				c1.118-0.787,1.809-1.795,1.535-2.238c-0.274-0.444,0.2-0.538,1.054-0.211c0.853,0.328,1.552,0.098,1.552-0.511
				s0.675-1.107,1.5-1.107c0.966,0,1.505,0.979,1.515,2.75c0.012,2.156,0.228,2.426,1,1.25c0.875-1.333,1.097-1.333,1.998,0
				c0.557,0.825,0.828,2.271,0.603,3.213c-0.225,0.942,0.247,2.258,1.05,2.924c1.237,1.027,1.357,0.804,0.788-1.463
				c-0.79-3.145,0.53-3.53,2.313-0.674c0.687,1.1,2.07,2,3.073,2c1.003,0,2.912,1.653,4.242,3.674s3.202,3.78,4.162,3.911
				c0.959,0.13,4.004,1.627,6.765,3.326c7.983,4.912,10.467,4.147,14.852-4.577c1.641-3.265,3.277-4.726,7.554-6.75
				c3.003-1.421,5.92-2.583,6.483-2.583s1.9-0.941,2.971-2.091l1.948-2.09l2.09,2.09c1.15,1.15,2.324,1.979,2.607,1.841
				c0.861-0.417,4.471,5.628,4.477,7.5c0.004,0.963,0.682,1.806,1.507,1.875c0.825,0.069,2.062,0.192,2.75,0.274
				c1.875,0.223,3.821-2.049,3.182-3.715c-0.663-1.729,6.506-9.596,8.2-8.996c0.623,0.22,2.873-1.306,5-3.393
				c2.127-2.086,5.217-4.473,6.868-5.304c1.65-0.831,3-1.988,3-2.572c0-1.671,2.907-4.161,8.056-6.899
				c4.747-2.524,7.523-3.108,8.782-1.849c0.369,0.369,3.824,0.806,7.676,0.969c3.853,0.164,7.952,0.806,9.111,1.425
				c1.637,0.876,2.013,0.847,1.686-0.133c-0.231-0.693-1.269-1.384-2.306-1.536c-1.038-0.152-3.038-0.601-4.446-0.996
				c-1.408-0.396-3.009-0.76-3.559-0.811c-0.55-0.05-1-0.542-1-1.092c0-0.879,1.438-0.945,7.5-0.345
				c0.825,0.081,1.725,0.417,2,0.747c1.077,1.29,7.65,3.305,10.373,3.18c3.961-0.182,8.908,3.856,11.513,9.4
				c1.214,2.583,3.146,4.961,4.426,5.447c1.249,0.475,2.878,1.595,3.621,2.49c0.768,0.925,2.116,1.384,3.128,1.063
				c1.17-0.372,1.976,0.06,2.357,1.261c0.319,1.004,1.817,2.535,3.331,3.403c3.336,1.913,9.252,3.143,9.252,1.924
				c0-0.485,0.869-0.654,1.932-0.376c1.578,0.413,1.828,0.107,1.363-1.668c-0.398-1.524-0.153-2.089,0.818-1.889
				c0.763,0.156,2.437-0.296,3.722-1.006c2.973-1.643,4.315-0.443,1.668,1.493c-2.092,1.53-2.063,1.582,2.338,4.248
				c1.113,0.674,1.082,1.564-0.184,5.222c-0.839,2.425-2.039,4.285-2.667,4.134c-0.712-0.172-0.906,0.467-0.515,1.698
				c0.477,1.505-0.085,2.341-2.368,3.521c-1.647,0.852-3.235,1.158-3.53,0.681c-1.1-1.779-6.863-2.168-9.221-0.623
				c-1.273,0.834-3.425,1.609-4.781,1.721c-1.887,0.156-2.216,0.506-1.398,1.49c1.26,1.519,2.212,1.725,1.323,0.287
				c-0.341-0.55-0.158-1,0.406-1c1.301,0,3.233,3.528,2.392,4.369c-0.347,0.347-1.682,0.631-2.965,0.631
				c-1.53,0-2.333,0.586-2.333,1.7c0,1.322-0.267,1.433-1.2,0.499c-0.66-0.66-1.977-1.2-2.926-1.2c-0.95,0-1.956-0.788-2.235-1.75
				c-0.294-1.011-0.43-0.694-0.323,0.75c0.127,1.725,0.703,2.414,1.855,2.224c0.919-0.152,2.791,0.763,4.161,2.033
				c1.952,1.809,2.274,2.695,1.487,4.101c-0.552,0.986-0.778,2.017-0.503,2.293c0.275,0.275,0.796-0.434,1.159-1.575
				c1.589-5.006,5.039,0.778,4.218,7.069c-0.294,2.256,0.027,4.162,0.843,5c1.616,1.66,0.779,6.855-1.104,6.855
				c-0.734,0-1.694,0.563-2.133,1.25c-0.44,0.687-3.145,2.43-6.011,3.87c-4.712,2.371-5.412,2.481-7.308,1.154
				c-1.152-0.807-2.632-1.55-3.288-1.649c-0.656-0.099-1.835-0.582-2.621-1.073c-0.785-0.49-2.909-0.951-4.72-1.025
				c-4.217-0.173-4.682-0.711-3.279-3.788c1.287-2.826,4.214-4.693,7.984-5.095c1.39-0.148,2.99-0.555,3.555-0.904
				c0.565-0.35,2.343-0.874,3.95-1.165c1.608-0.291,3.078-0.998,3.269-1.57s1.03-1.723,1.863-2.557
				c1.248-1.248,1.8-1.289,3.114-0.232c1.066,0.857,0.947,0.403-0.356-1.363c-1.074-1.456-2.26-2.461-2.634-2.233
				c-0.374,0.227-0.966-0.048-1.314-0.611c-0.415-0.671-1.115-0.59-2.035,0.234c-3.213,2.883-4.168,3.465-6.754,4.114
				c-1.494,0.375-2.716,1.114-2.716,1.643s-1.463,0.144-3.25-0.855c-3.847-2.149-3.951-2.801-1.04-6.502
				c2.221-2.823,4.29-2.829,4.29-0.012c0,1.297,0.235,1.277,1.645-0.133c1.18-1.18,1.848-1.318,2.361-0.488
				c0.486,0.786,0.938,0.579,1.408-0.645c0.38-0.992,0.366-1.478-0.031-1.081c-0.398,0.398-1.747,0.052-3-0.769
				c-1.252-0.821-2.981-1.222-3.841-0.892c-1.193,0.458-1.401,0.159-0.875-1.262c0.379-1.023,1.109-2.144,1.624-2.49
				c1.389-0.933-1.486-6.286-3.594-6.692c-0.985-0.19-3.388,0.874-5.34,2.363c-1.952,1.489-4.699,2.707-6.105,2.707
				c-2.327,0-2.385,0.094-0.653,1.053c1.046,0.579,2.375,1.687,2.953,2.462c0.578,0.776,2.866,1.484,5.085,1.573
				c3.493,0.141,3.971,0.431,3.555,2.162c-0.762,3.173-2.24,4.5-5.014,4.5c-2.005,0-2.311,0.267-1.378,1.2
				c1.73,1.73,1.49,2.573-0.956,3.35c-1.185,0.376-3.165,1.774-4.4,3.105c-1.234,1.332-3.197,2.605-4.361,2.829
				c-1.165,0.224-2.849,1.14-3.745,2.036c-1.997,1.997-3.253,0.49-2.57-3.084c0.51-2.665,2.129-3.134,4.092-1.185
				c1.01,1.003,1.118,0.854,0.545-0.75c-0.393-1.1-1.208-2.649-1.809-3.442c-0.83-1.093-0.792-1.26,0.155-0.691
				c0.862,0.518,1.225,0.034,1.171-1.559c-0.044-1.27-0.306-1.746-0.584-1.059c-0.277,0.688-1.367,1.25-2.421,1.25
				c-1.25,0-1.917,0.695-1.917,2c0,2.779-1.451,2.499-2.839-0.547c-1.37-3.007-1.504-4.784-0.305-4.042
				c0.471,0.291,0.65-0.542,0.401-1.851c-0.25-1.308-1.31-2.603-2.356-2.876c-1.195-0.313-1.901-1.379-1.901-2.875
				c0-1.567-0.995-2.966-2.919-4.102c-1.88-1.111-3.421-3.235-4.328-5.966c-1.327-3.996-1.649-4.259-5.58-4.549
				c-2.589-0.191-4.172,0.117-4.172,0.809c0,0.614,0.45,0.838,1,0.498c0.55-0.34,1-0.157,1,0.406c0,1.352-3.341,3.094-5.935,3.094
				c-1.136,0-2.066-0.536-2.066-1.191c0-0.655-0.603-0.367-1.339,0.641c-1.271,1.737-1.374,1.741-2.017,0.064
				c-0.701-1.827,0.569-4.053,3.607-6.321c0.963-0.719,1.75-2.126,1.75-3.127c0-1.977,2.674-4.725,3.649-3.75
				c0.331,0.33-0.266,2.354-1.327,4.497c-1.824,3.687-1.831,3.871-0.125,3.425c0.992-0.26,1.803-1.094,1.803-1.855
				c0-1.306,2.31-1.836,6.25-1.436c0.963,0.098,1.75-0.477,1.75-1.277s0.675-1.715,1.5-2.032c0.852-0.327,1.5-1.818,1.5-3.452
				c0-1.606,0.884-3.675,2-4.687c1.1-0.995,2-2.781,2-3.968c0-2.515-4.733-7.402-7.726-7.979c-3.095-0.596-6.575,3.103-5.951,6.322
				c0.634,3.265-0.261,8.125-1.497,8.125c-0.507,0-1.948-1.192-3.201-2.649l-2.279-2.649l-2.255,3.648
				c-2.445,3.955-3.593,4.343-6.451,2.177c-2.354-1.783-5.641-0.041-5.641,2.99c0,1.12-0.729,3.078-1.62,4.349
				c-1.293,1.847-1.394,2.808-0.5,4.77c1.562,3.427,1.397,7.777-0.461,12.145c-1.895,4.455-2.27,6.143-2.638,11.855
				c-0.155,2.399-0.574,4.361-0.932,4.362c-1.899,0.002-4.984,7.797-5.257,13.279c-0.213,4.288-0.762,6.236-1.944,6.899
				c-0.906,0.507-1.648,1.709-1.648,2.673c0,0.962-0.505,2.254-1.122,2.872c-1.367,1.367-1.423,10.993-0.127,21.777
				C268.411,171.557,266.417,173.373,258.379,167.236z M362.695,99.939c0.35-0.566-0.052-0.734-0.941-0.393
				c-1.732,0.665-2.049,1.382-0.611,1.382C361.66,100.928,362.359,100.483,362.695,99.939z M330.202,89.369
				c0-0.242-0.702-0.441-1.559-0.441c-0.858,0-1.276,0.458-0.931,1.017C328.282,90.868,330.202,90.424,330.202,89.369z
				 M336.123,85.178c-0.045-1.568-0.318-2.105-0.634-1.25c-0.306,0.825-1,2.062-1.544,2.749c-0.705,0.893-0.524,1.25,0.634,1.25
				C335.701,87.928,336.177,87.08,336.123,85.178z M330.702,84.928c-0.996-1.1-2.24-2-2.766-2s0.107,0.885,1.405,1.967
				C332.397,87.44,332.989,87.455,330.702,84.928z M371.702,66.928c-0.792-1.282-1.5-1.282-1.5,0c0,0.55,0.477,1,1.059,1
				C371.843,67.928,372.042,67.478,371.702,66.928z M359.726,137.569c-1.209-0.884-1.557-1.966-1.096-3.416
				c0.668-2.103,0.69-2.106,2.622-0.174C364.421,137.147,363.17,140.087,359.726,137.569z M396.452,137.208
				c-1.528-0.547-1.681-7.896-0.183-8.821c1.717-1.062,2.066,0.061,0.94,3.024c-0.761,2-0.73,3.146,0.114,4.163
				C398.65,137.174,398.283,137.861,396.452,137.208z M505.074,137.089c-0.401-2.08-0.884-4.912-1.136-6.661
				c-0.158-1.101-1.281-4.177-2.495-6.839c-1.968-4.316-2.043-5.001-0.696-6.349c1.076-1.076,1.873-1.211,2.766-0.469
				c0.751,0.623,1.825,0.69,2.672,0.168c0.977-0.604,2.125-0.107,3.716,1.609c1.266,1.366,2.301,2.217,2.301,1.892
				c0-0.325,0.626-0.011,1.39,0.698s1.174,2.189,0.912,3.29c-0.264,1.1-0.691,3.124-0.951,4.499
				c-0.259,1.376-0.665,3.459-0.901,4.631c-0.378,1.885-1.857,2.81-6.2,3.883C505.764,137.612,505.145,137.454,505.074,137.089z
				 M539.907,130.604c-1.925-1.536-3.052-6.689-3.531-16.137c-0.099-1.973-1.022-4.251-2.146-5.298
				c-2.972-2.768-7.028-10.971-7.028-14.212c0-4.107-0.953-6.029-2.991-6.029c-1.995,0-2.976-2.681-2.996-8.191
				c-0.009-2.03-0.464-3.969-1.014-4.309c-0.551-0.34-1-1.319-1-2.175c0-1.131,0.699-1.424,2.55-1.07
				c2.51,0.48,2.545,0.4,2.251-4.982c-0.218-3.974-0.779-5.725-2.051-6.406c-0.963-0.515-1.75-0.542-1.75-0.06
				c0,0.482-1.463,0.835-3.251,0.785c-3.162-0.088-3.246,0.015-3.104,3.909c0.08,2.2,0.447,5.35,0.815,7
				c0.605,2.708,0.531,2.83-0.756,1.25c-0.784-0.962-1.713-1.75-2.065-1.75c-0.352,0-0.639,3.124-0.639,6.941
				c0,3.818-0.458,7.224-1.017,7.569c-0.558,0.345-0.776,1.016-0.483,1.49c0.293,0.474,0.128,1.112-0.367,1.419
				c-0.496,0.306-1.475-0.83-2.177-2.525c-1.08-2.607-1.032-3.494,0.307-5.762c1.463-2.475,1.449-2.794-0.163-4.156
				c-2.683-2.265-6.513-26.967-3.933-25.373c0.812,0.503,1.3-2.331,1.004-5.852c-0.081-0.963,0.277-1.75,0.795-1.75
				c1.206,0,2.993,6.4,2.435,8.726c-0.472,1.969,0.076,2.91,3.278,5.614c2.151,1.817,2.199,1.8,3.823-1.34
				c0.904-1.749,1.394-3.831,1.089-4.628c-0.306-0.796,0.139-1.714,0.985-2.039c0.848-0.325,1.295-1.231,0.995-2.014
				c-0.301-0.783-0.117-1.157,0.41-0.832c0.594,0.368,0.827-3.569,0.614-10.393c-0.309-9.882-0.144-11.2,1.659-13.134
				c2.246-2.411,4.015-2.297,12.478,0.803c3.041,1.114,6.17,3.134,7.478,4.826c1.237,1.601,2.821,3.505,3.521,4.232
				c0.698,0.727,1.271,2.157,1.271,3.178c0,1.022,0.578,2.452,1.286,3.179c2.317,2.381,3.904,9.8,3.197,14.944
				c-0.45,3.273-0.31,4.877,0.423,4.877c0.601,0,1.093,0.723,1.093,1.607c0,1.017-0.55,1.396-1.5,1.031
				c-1.935-0.742-1.912,0.093,0.058,2.062c0.906,0.907,1.27,2.235,0.87,3.179c-1.27,3-1.16,12.583,0.199,17.198
				c0.741,2.518,1.589,6.498,1.884,8.846c0.296,2.348,1.201,5.552,2.013,7.122c0.812,1.57,1.522,5.239,1.577,8.155
				c0.054,2.915,0.42,6.425,0.812,7.8c0.391,1.375,0.29,4.199-0.228,6.277c-0.737,2.957-1.323,3.655-2.701,3.218
				c-0.968-0.307-3.339,0.373-5.268,1.511C544.426,131.583,541.755,132.079,539.907,130.604z M381.202,129.119
				c0-1.239,0.694-2.521,1.543-2.846c2.607-1,2.964,0.593,0.651,2.905l-2.194,2.194V129.119z M390.559,124.428
				c1.915-1.917,2.739-1.917,2.005,0c-0.317,0.825-1.235,1.5-2.04,1.5C389.253,125.928,389.257,125.729,390.559,124.428z
				 M520.202,119.036c0-1.865,0.415-2.969,0.985-2.616c1.05,0.649,0.86,3.996-0.293,5.149
				C520.514,121.95,520.202,120.81,520.202,119.036z M191.952,119.596c-1.2-2.929-0.947-10.265,0.31-9.007
				c0.583,0.584,0.92,3.261,0.75,5.95C192.799,119.889,192.465,120.851,191.952,119.596z M510.363,114.881
				c-3.061-1.862-3.3-2.364-2.879-6.013c0.253-2.19,0.069-4.223-0.411-4.52c-0.479-0.296-0.871-1.017-0.871-1.602
				c0-0.671,0.555-0.603,1.501,0.182c0.93,0.773,1.5,2.97,1.5,5.789c0,2.499,0.324,4.22,0.72,3.824
				c0.396-0.396,0.66-2.384,0.588-4.417c-0.074-2.033,0.083-2.684,0.349-1.446c0.562,2.619,1.598,2.852,3.343,0.75
				c0.685-0.825,1.641-1.5,2.123-1.5c1.502,0,0.966,1.911-1.123,4c-2,2-2,2,0,2c1.112,0,2,0.666,2,1.5c0,0.825-0.638,1.5-1.416,1.5
				c-0.779,0-1.567,0.447-1.751,0.992C513.852,116.466,512.2,115.998,510.363,114.881z M520.855,114.175
				c-0.292-0.472-0.488-2.34-0.437-4.152c0.071-2.5,0.31-2.907,0.993-1.687c0.495,0.884,0.623,2.053,0.286,2.599
				c-0.337,0.545,0.126,0.992,1.03,0.992s1.464,0.534,1.246,1.187C523.465,114.637,521.543,115.29,520.855,114.175z
				 M475.202,111.928c-0.589-1.1-0.8-2-0.469-2c1.33,0,4.469,2.132,4.469,3.035C479.202,114.717,476.291,113.964,475.202,111.928z
				 M485.452,113.265c-1.518-0.612-1.644-2.976-0.206-3.865c0.574-0.355,1.699-0.101,2.5,0.564c1.17,0.971,1.456,0.899,1.456-0.367
				c0-2.955,2.318-6.67,4.161-6.67c1.012,0,1.84,0.45,1.84,1c0,0.939-1.456,1.418-3.324,1.093c-0.453-0.079-0.545,0.309-0.204,0.861
				c0.341,0.552,0.105,1.968-0.525,3.146c-0.797,1.489-0.811,1.934-0.047,1.462c0.605-0.374,1.1-0.219,1.1,0.344
				C492.202,112.837,488.074,114.324,485.452,113.265z M492.826,109.13c-0.318-0.514,0.389-1.782,1.571-2.818
				c1.182-1.036,1.838-1.352,1.46-0.703c-0.379,0.65-0.231,1.464,0.328,1.809c1.266,0.782,1.304-1.486,0.058-3.456
				c-1.474-2.332,0.645-4.246,3.044-2.748c1.989,1.243,2.663,4.714,0.914,4.714c-0.55,0-1,0.676-1,1.5c0,0.825-0.638,1.5-1.418,1.5
				c-0.78,0-2.084,0.255-2.899,0.568C494.07,109.809,493.144,109.643,492.826,109.13z M521.723,103.962
				c-0.902-1.46-2.485-7.034-1.998-7.034c0.744,0,3.732,7.078,3.208,7.602C522.641,104.822,522.096,104.566,521.723,103.962z
				 M288.28,102.511c-0.044-1.054,0.193-1.645,0.525-1.312c0.333,0.333,0.368,1.195,0.079,1.917
				C288.566,103.913,288.328,103.676,288.28,102.511z M204.201,101.487c0-0.243,0.45-0.719,1-1.059c0.55-0.34,1-0.142,1,0.441
				c0,0.583-0.45,1.059-1,1.059S204.201,101.729,204.201,101.487z M375.506,99.871c0.445-1.703,0.289-1.851-0.908-0.858
				c-0.795,0.66-1.724,0.922-2.064,0.582c-0.988-0.988,1.681-3.599,3.115-3.048c1.511,0.579,1.787,5.381,0.31,5.381
				C375.414,101.928,375.211,101.002,375.506,99.871z M460.457,98.606c-1.077-1.198-2.2-2.853-2.497-3.678
				c-0.888-2.472-7.62-5.559-9.581-4.394c-3.005,1.786-5.182,0.547-5.142-2.929l0.036-3.177l2.323,2.84
				c1.957,2.392,2.422,2.58,2.956,1.189c0.464-1.212,1.621-1.568,4.35-1.339c3.048,0.255,4.215,1.031,6.478,4.311
				c1.519,2.2,2.583,4.512,2.365,5.137c-0.241,0.692,0.358,0.939,1.53,0.633c1.273-0.333,1.925,0.009,1.925,1.006
				C465.202,100.703,462.544,100.928,460.457,98.606z M512.201,98.369c0-0.858,0.45-1.281,1-0.941c1.295,0.8,1.295,2.5,0,2.5
				C512.651,99.928,512.201,99.226,512.201,98.369z M290.029,97.313c-0.417-0.806-0.413-1.884,0.021-4.968
				c0.083-0.596,0.827-1.084,1.652-1.084c0.825,0,1.484,0.488,1.465,1.084C293.107,94.158,290.518,98.258,290.029,97.313z
				 M505.201,97.032c0-1.351,1.151-1.984,2.598-1.428c2.037,0.781,1.718,1.875-0.598,2.049
				C506.102,97.736,505.201,97.456,505.201,97.032z M511.17,93.344c-0.963-2.532-0.583-4.417,0.891-4.417
				c0.407,0,0.74,1.575,0.74,3.501C512.801,96.604,512.478,96.786,511.17,93.344z M291.702,83.928c0.34-0.55,1.068-1,1.618-1
				c0.55,0,0.722,0.45,0.382,1c-0.34,0.55-1.068,1-1.618,1C291.534,84.928,291.362,84.478,291.702,83.928z M512.368,80.928
				c0.503-1.51,2.112-1.665,2.583-0.25c0.229,0.687-0.333,1.25-1.249,1.25S512.185,81.478,512.368,80.928z M499.718,48.979
				c-0.341-1.072-1.454-2.214-2.475-2.538c-1.881-0.597-3.67-3.513-2.156-3.513c1.495,0,6.115,4.875,6.115,6.452
				C501.202,51.519,500.461,51.318,499.718,48.979z M493.396,37.428c-0.02-1.65,0.187-2.446,0.461-1.769
				c0.274,0.677,0.29,2.027,0.037,3C493.641,39.632,493.417,39.078,493.396,37.428z M547.702,35.928c-0.362-1.65-1.074-3-1.579-3
				c-0.507,0-0.92-0.637-0.92-1.416c0-0.779-0.563-1.627-1.25-1.884c-0.817-0.305-0.589-0.738,0.655-1.25
				c2.727-1.12,5.705,2.837,5.413,7.188C549.739,39.736,548.578,39.918,547.702,35.928z M394.702,17.928c-0.34-0.55-0.142-1,0.441-1
				c0.583,0,1.059,0.45,1.059,1C396.201,19.209,395.493,19.209,394.702,17.928z M492.412,5.49c-1.465-3.215-1.086-4.322,0.73-2.134
				c0.674,0.812,1.074,2.259,0.89,3.215C493.775,7.905,493.398,7.653,492.412,5.49z M464.201-11.072
				c-0.793-0.49-1.11-1.223-0.704-1.629c0.406-0.406,1.263-0.213,1.905,0.429C466.912-10.761,466.069-9.918,464.201-11.072z
				 M459.202-12.072c0-0.55,0.45-1,1-1c0.55,0,1,0.45,1,1s-0.45,1-1,1C459.652-11.072,459.202-11.522,459.202-12.072z
				 M508.202-23.549c-2.475-1.312-6.6-2.903-9.167-3.534c-4.395-1.081-8.828-4.327-7.594-5.56c0.307-0.308,2.518-0.014,4.911,0.652
				c2.393,0.667,5.288,1.271,6.434,1.342c2.878,0.179,6.81,2.916,9.388,6.537C514.756-20.485,514.144-20.398,508.202-23.549z
				 M486.283-26.209c-3.612-5.997-5.327-7.863-7.222-7.863c-1.023,0-1.86-0.444-1.86-0.987c0-0.798,5.689-0.86,11.357-0.125
				c0.472,0.061,0.604,0.772,0.294,1.579c-0.31,0.807-0.133,1.734,0.393,2.059c1.587,0.981,1.11,3.469-0.544,2.834
				c-1.778-0.682-1.887,0.046-0.419,2.79C490.151-22.429,488.409-22.681,486.283-26.209z"/>
		</g>
	</g>
</g>
<g id="layer2" inkscape:label="Text" inkscape:groupmode="layer">
	<text transform="matrix(1 0 0 1 591.6357 281.8931)" fill="#AA0000" font-family="'DejaVuSans'" font-size="300">BREAKING</text>
	<text transform="matrix(1 0 0 1 2148.3057 281.8931)" fill="#666666" font-family="'DejaVuSans'" font-size="300">NEWS</text>
</g>
</svg>
